<?xml version="1.0" encoding="utf-8"?>
<!-- Generator: Adobe Illustrator 16.0.0, SVG Export Plug-In . SVG Version: 6.00 Build 0)  -->
<!DOCTYPE svg PUBLIC "-//W3C//DTD SVG 1.1//EN" "http://www.w3.org/Graphics/SVG/1.1/DTD/svg11.dtd">
<svg version="1.1" id="レイヤー_1" xmlns="http://www.w3.org/2000/svg" xmlns:xlink="http://www.w3.org/1999/xlink" x="0px"
	 y="0px" width="300px" height="59.5px" viewBox="0 0 300 59.5" enable-background="new 0 0 300 59.5" xml:space="preserve">
<path fill="#ED1A3A" d="M290.311,35.094h-22.936l-5.897-4.579h22.936L290.311,35.094z M289.445,38.326H266.51l-8.352,4.579h22.936
	L289.445,38.326z M274.481,22.705h-25.06l2.285-8.626h25.189l6.01-4.579h-36.96l-4.739,17.783h39.174L274.481,22.705z
	 M236.196,46.133l-1.048,3.918h32.981l7.116-3.914L236.196,46.133z"/>
<path fill="#FFFFFF" d="M34.493,27.533c-0.449-5.373-4.806-6.777-9.871-6.777c-5.064,0-8.889,1.979-8.889,5.545
	c0,4.094,3.825,5.067,11.488,6.348c5.72,0.964,11.447,2.278,11.447,8.317c0,7.708-6.992,9.813-13.119,9.813
	c-7.972,0-13.79-2.728-14.264-11.183h3.26c0.568,6.606,4.969,8.194,11.003,8.194c4.709,0,9.596-1.276,9.596-6.247
	c0-4.806-5.72-5.381-11.448-6.31c-7.486-1.184-11.49-3.295-11.49-8.361c0-6.871,6.342-9.109,12.415-9.109
	c6.432,0,12.907,2.287,13.121,9.77H34.493"/>
<polyline fill="#FFFFFF" points="51.399,36.779 37.265,18.545 41.489,18.545 53.029,33.521 64.562,18.545 68.793,18.545 
	54.658,36.779 54.658,49.989 51.399,49.989 51.399,36.779 "/>
<polyline fill="#FFFFFF" points="71.642,18.545 75.568,18.545 97.543,45.409 97.623,45.409 97.623,18.545 100.882,18.545 
	100.882,49.989 97.097,49.989 74.994,23.135 74.906,23.135 74.906,49.989 71.642,49.989 71.642,18.545 "/>
<path fill="#FFFFFF" d="M191.667,27.533c-0.434-5.373-4.798-6.777-9.859-6.777c-5.066,0-8.894,1.979-8.894,5.545
	c0,4.094,3.827,5.067,11.49,6.348c5.729,0.964,11.452,2.278,11.452,8.317c0,7.708-7.004,9.813-13.125,9.813
	c-7.971,0-13.78-2.728-14.265-11.183h3.257c0.573,6.606,4.98,8.194,11.008,8.194c4.709,0,9.6-1.276,9.6-6.247
	c0-4.806-5.727-5.381-11.45-6.31c-7.482-1.184-11.489-3.295-11.489-8.361c0-6.871,6.336-9.109,12.416-9.109
	c6.429,0,12.904,2.287,13.122,9.77H191.667"/>
<path fill="#FFFFFF" d="M156.303,18.545h-16.944v31.444h3.261V21.547h13.248c3.742,0,6.384,1.361,6.384,6.076
	c0,3.648-1.99,7.776-7.465,7.684h-10.291l1.325,3.05h9.001c7.001,0,10.951-4.792,10.951-10.733
	C165.773,20.968,161.147,18.545,156.303,18.545"/>
<polyline fill="#FFFFFF" points="129.212,42.678 132.422,49.982 136.214,49.982 131.321,39.199 129.212,42.678 "/>
<path fill="#FFFFFF" d="M111.798,40.309l8.212-18.506l6.05,13.707c1.105-0.137,2.241-0.247,3.439-0.333l-7.55-16.632h-3.783
	l-14.276,31.438C105.938,45.84,108.419,42.663,111.798,40.309"/>
<path fill="#ED1A3A" d="M137.475,38.864l-1.752-3.907c-2.226,0.015-4.291,0.084-6.223,0.22c-1.198,0.086-2.334,0.196-3.439,0.333
	c-6.124,0.752-10.687,2.31-14.262,4.799c-3.379,2.354-5.86,5.531-7.907,9.674h6.169C115.902,38.385,133.225,38.884,137.475,38.864"
	/>
<polyline fill="#FFFFFF" points="203.174,46.994 203.174,21.547 224.932,21.547 224.932,18.545 199.922,18.545 199.922,49.989 
	225.279,49.989 225.279,46.994 203.174,46.994 "/>
<polyline fill="#FFFFFF" points="224.136,35.193 224.136,32.202 204.425,32.202 205.762,35.193 224.136,35.193 "/>
</svg>
